<?xml version="1.0" encoding="UTF-8"?>
<svg version="1.1" viewBox="0 0 2000 2000" width="1280" height="1280" xmlns="http://www.w3.org/2000/svg">
<path transform="translate(0)" d="m0 0h2e3v2e3h-2e3z" fill="#FEFEFE"/>
<path transform="translate(196,249)" d="m0 0h160l18 3 16 5 18 8 16 10 11 9 12 11 12 15 8 13 9 19 12 37 12 40 4 10 13 1 1185 1 12 4 9 7 6 7 7 13 1 4v10l-3 15-13 45-24 82-17 59-25 86-49 168-21 73-11 38-10 25-8 15-11 14-9 10-7 7-15 11-17 10-19 8-18 5-21 3-721 1-10 3-17 9-19 14-13 11-22 22-10 13-11 16-8 13-9 17v3l73 1h968l15 2 12 6 9 9 6 10 5 13v14l-7 14-3 4h-2l-2 4-10 7-10 4-7 1h-1127l-9-2-11-6-7-6-9-13-3-7-1-5v-8l3-14 9-25 11-24 12-23 13-21 8-12 12-16 11-13 12-14 16-16 8-7 13-11 17-13 1-5-8-9-12-17-8-14-8-21-7-21-15-50-20-66-16-54-17-57-15-50-16-54-21-70-16-54-15-50-14-47-15-50-11-37-8-16-7-6-10-5-10-2-114-1-47-1-10-2-10-5-10-8-8-11-4-9-1-4v-22l4-11 6-9 4-5 10-7 9-4z" fill="#99C7DE"/>
<path transform="translate(571,1385)" d="m0 0h22l19 4 16 6 21 11 12 9 7 6 9 11 8 13 8 18 5 19 2 17-1 16-5 20-6 16-9 15-7 9-9 10-10 9-16 9-19 8-16 4-6 1h-29l-16-3-16-6-14-8-12-9-10-9-9-10-9-14-8-16-6-19-2-11v-21l4-19 8-20 9-16 11-13 11-10 13-9 12-7 19-7z" fill="#99C7DE"/>
<path transform="translate(1470,1385)" d="m0 0h22l18 3 18 6 23 12 11 9 15 15 10 15 8 17 5 17 2 12v21l-4 17-6 17-9 16-8 10-9 10-8 8-10 7-15 8-19 7-19 4h-18l-17-3-17-5-21-10-11-8-10-9-7-7-7-10-7-12-7-17-4-17-1-7v-16l3-21 5-16 8-16 6-9 11-13 13-11 14-9 12-6 18-6z" fill="#99C7DE"/>
<path transform="translate(1274,531)" d="m0 0h153l9 1v8l-8 49-9 50-13 70-1 3-2 1h-187l-1-1 1-33 6-119 1-25 1-3z" fill="#FEFEFE"/>
<path transform="translate(1039,530)" d="m0 0h53l76 1 2 1v36l-3 62-4 71-1 11-1 1h-186l-2-5-4-81-2-62v-32l4-2z" fill="#FEFEFE"/>
<path transform="translate(764,531)" d="m0 0h143l6 1 1 2 4 86 3 77v15l-1 1h-181l-3-2-12-75-12-81-2-16v-6l1-1z" fill="#FEFEFE"/>
<path transform="translate(1497,531)" d="m0 0h128l2 1-4 16-8 31-15 52-11 38-12 39-2 4-13 1h-54l-48-1-1-5 18-99 12-64 3-11z" fill="#FEFEFE"/>
<path transform="translate(977,766)" d="m0 0h180l1 1v13l-5 105-1 1h-171l-1-1-3-66-1-31v-21z" fill="#FEFEFE"/>
<path transform="translate(1212,766)" d="m0 0h180l1 1v8l-9 54-10 53-1 3-17 1h-149l-1-1v-23l2-52 3-43z" fill="#FEFEFE"/>
<path transform="translate(750,766)" d="m0 0h172l1 1 1 7 4 110-2 2h-161l-2-3-8-46-8-54-1-16z" fill="#FEFEFE"/>
<path transform="translate(1010,939)" d="m0 0h117l20 1 1 1-1 37-3 80-1 6-3 1h-150l-2-1-1-11-3-79v-34z" fill="#FEFEFE"/>
<path transform="translate(538,531)" d="m0 0h62l53 1 3 3 24 150 3 19v8l-9 1h-84l-5-5-14-46-15-51-16-55-5-18v-6z" fill="#FEFEFE"/>
<path transform="translate(1204,940)" d="m0 0h157l1 2-6 39-8 46-7 36-1 1-17 1h-126l-2-1 1-33 4-77 1-12z" fill="#FEFEFE"/>
<path transform="translate(785,940)" d="m0 0h145l1 1 5 108v15l-6 1h-135l-3-1-5-24-9-56-5-34v-9z" fill="#FEFEFE"/>
<path transform="translate(1454,766)" d="m0 0h105l-1 8-8 30-19 66-4 13-2 2-90 1-7-1v-8l11-63 9-45 1-2z" fill="#FEFEFE"/>
<path transform="translate(1419,940)" d="m0 0h89l-1 9-9 34-10 33-8 17-11 13-10 7-12 6-15 4-8 1h-28v-7l11-65 9-48 1-3z" fill="#FEFEFE"/>
<path transform="translate(605,766)" d="m0 0h85l2 1 5 30 12 78v10h-70l-3-4-7-21-18-62-7-24v-7z" fill="#FEFEFE"/>
<path transform="translate(1475,1452)" d="m0 0h21l12 4 11 7 8 9 6 13 2 10v14l-3 10-6 11-7 8-10 7-13 5h-19l-12-3-11-6-9-10-6-12-3-11v-18l4-12 6-9 7-7 15-8z" fill="#FEFEFE"/>
<path transform="translate(573,1452)" d="m0 0h20l10 3 10 5 9 8 6 10 4 12 1 6v11l-4 14-6 10-6 7-10 7-7 3-11 2h-11l-15-4-11-6-8-7-6-10-3-9-1-5v-20l4-11 6-9 10-9 12-6z" fill="#FEFEFE"/>
<path transform="translate(657,940)" d="m0 0h59l2 1 4 17 16 99-1 6-7-1-20-8-11-7-8-7-10-14-9-21-8-27-8-30v-7z" fill="#FEFEFE"/>
</svg>
